<?xml version="1.0" encoding="UTF-8" standalone="no"?>
<!DOCTYPE svg PUBLIC "-//W3C//DTD SVG 20010904//EN"
              "http://www.w3.org/TR/2001/REC-SVG-20010904/DTD/svg10.dtd">

<svg xmlns="http://www.w3.org/2000/svg"
     width="3.52222in" height="2.05556in"
     viewBox="0 0 317 185">
  <path id="Importierter Pfad"
        fill="none" stroke="black" stroke-width="1"
        d="M 313.52,121.67
           C 311.93,121.67 291.52,105.82 266.85,92.47
             276.61,63.31 280.42,34.94 280.42,32.85
             282.16,31.10 280.42,27.62 278.68,25.88
             276.94,24.14 275.20,24.14 271.71,24.14
             270.08,25.77 228.36,30.51 194.42,45.56
             181.79,22.29 168.13,4.16 167.21,3.24
             163.73,-0.25 156.76,-0.25 153.27,3.24
             152.33,5.10 138.35,23.62 125.58,47.06
             91.74,31.99 50.41,25.88 48.77,25.88
             47.03,24.14 43.54,25.88 41.80,27.62
             40.06,29.36 40.06,31.10 40.06,34.59
             40.06,36.61 43.58,63.05 52.58,91.06
             25.45,104.67 5.14,121.67 3.48,121.67
             1.74,123.42 -0.00,125.16 -0.00,128.64
             -0.00,132.12 1.74,133.87 3.48,135.61
             6.97,137.35 67.93,184.38 111.47,184.38
             133.61,184.38 149.04,177.72 157.61,165.22
             157.61,165.22 159.82,165.22 159.82,165.22
             169.07,177.72 183.37,184.38 205.53,184.38
             249.07,184.38 311.77,137.35 313.52,135.61
             315.26,133.87 317.00,132.12 317.00,128.64
             317.00,125.16 315.26,123.42 313.52,121.67
             313.52,121.67 313.52,121.67 313.52,121.67 Z
           M 261.26,43.30
           C 257.78,65.94 247.33,111.22 226.43,132.12
             219.18,139.37 213.17,143.18 207.97,145.05
             212.84,137.11 215.98,126.43 215.98,111.22
             215.98,95.58 209.88,77.47 202.01,60.59
             222.13,50.96 247.24,46.41 261.26,43.30 Z
           M 160.24,22.39
           C 172.43,41.55 198.56,81.61 198.56,109.48
             198.56,144.32 182.88,146.06 160.24,146.06
             137.60,146.06 121.92,144.32 121.92,109.48
             121.92,81.61 148.05,41.55 160.24,22.39 Z
           M 117.74,62.63
           C 110.25,78.84 104.50,96.07 104.50,111.22
             104.50,127.75 108.09,139.13 113.77,147.21
             108.29,145.54 101.91,141.72 94.06,133.87
             73.15,114.71 62.70,67.68 59.22,45.04
             73.17,48.14 96.75,54.01 117.74,62.63 Z
           M 26.13,128.64
           C 34.63,122.98 46.59,116.15 59.19,109.13
             65.09,123.36 72.53,136.74 81.86,146.06
             94.06,158.25 107.99,165.22 120.18,165.22
             124.31,165.22 129.38,163.81 133.96,161.63
             134.88,161.93 135.79,162.22 136.73,162.47
             131.69,165.10 124.33,166.96 113.20,166.96
             85.35,166.96 45.29,140.83 26.13,128.64
             26.13,128.64 26.13,128.64 26.13,128.64 Z
           M 203.78,166.96
           C 193.46,166.96 186.70,165.36 181.93,163.02
             184.29,162.47 186.61,161.77 188.82,160.93
             192.78,162.45 196.85,163.48 200.30,163.48
             212.49,163.48 224.69,158.25 238.62,144.32
             247.38,135.56 254.45,123.22 260.18,109.97
             272.98,116.69 284.08,123.21 290.87,128.64
             273.46,140.83 231.65,166.96 203.78,166.96
             203.78,166.96 203.78,166.96 203.78,166.96 Z" />
</svg>
