<?xml version="1.0" encoding="UTF-8" standalone="no"?>
<!DOCTYPE svg PUBLIC "-//W3C//DTD SVG 20010904//EN"
              "http://www.w3.org/TR/2001/REC-SVG-20010904/DTD/svg10.dtd">

<svg xmlns="http://www.w3.org/2000/svg"
     width="0.444444in" height="0.444444in"
     viewBox="0 0 40 40">
  <path id="Importierter Pfad"
        fill="none" stroke="black" stroke-width="1"
        d="M 32.01,10.35
           C 32.30,10.05 32.48,9.64 32.48,9.19
             32.48,8.27 31.73,7.52 30.81,7.52
             30.36,7.52 29.95,7.70 29.65,7.99
             29.65,7.99 20.00,17.64 20.00,17.64
             20.00,17.64 10.35,7.99 10.35,7.99
             10.05,7.70 9.64,7.52 9.19,7.52
             8.27,7.52 7.52,8.27 7.52,9.19
             7.52,9.64 7.70,10.05 7.99,10.35
             7.99,10.35 17.64,20.00 17.64,20.00
             17.64,20.00 7.99,29.66 7.99,29.66
             7.67,29.96 7.48,30.38 7.48,30.85
             7.48,31.77 8.23,32.52 9.15,32.52
             9.62,32.52 10.04,32.33 10.34,32.01
             10.34,32.01 20.00,22.36 20.00,22.36
             20.00,22.36 29.66,32.01 29.66,32.01
             29.95,32.30 30.36,32.48 30.81,32.48
             31.73,32.48 32.48,31.73 32.48,30.81
             32.48,30.36 32.30,29.95 32.01,29.65
             32.01,29.65 22.36,20.00 22.36,20.00
             22.36,20.00 32.01,10.35 32.01,10.35 Z" />
</svg>
