<?xml version="1.0" encoding="UTF-8" standalone="no"?>
<!DOCTYPE svg PUBLIC "-//W3C//DTD SVG 20010904//EN"
              "http://www.w3.org/TR/2001/REC-SVG-20010904/DTD/svg10.dtd">

<svg xmlns="http://www.w3.org/2000/svg"
     width="0.444444in" height="0.444444in"
     viewBox="0 0 40 40">
  <path id="Importierter Pfad"
        fill="none" stroke="black" stroke-width="1"
        d="M 37.78,11.11
           C 37.78,11.11 2.22,11.11 2.22,11.11
             0.99,11.11 0.00,10.12 0.00,8.89
             0.00,7.66 0.99,6.67 2.22,6.67
             2.22,6.67 37.78,6.67 37.78,6.67
             39.01,6.67 40.00,7.66 40.00,8.89
             40.00,10.12 39.01,11.11 37.78,11.11
             37.78,11.11 37.78,11.11 37.78,11.11 Z
           M 37.78,22.22
           C 37.78,22.22 2.22,22.22 2.22,22.22
             0.99,22.22 0.00,21.23 0.00,20.00
             0.00,18.77 0.99,17.78 2.22,17.78
             2.22,17.78 37.78,17.78 37.78,17.78
             39.01,17.78 40.00,18.77 40.00,20.00
             40.00,21.23 39.01,22.22 37.78,22.22
             37.78,22.22 37.78,22.22 37.78,22.22 Z
           M 37.78,33.33
           C 37.78,33.33 2.22,33.33 2.22,33.33
             0.99,33.33 0.00,32.34 0.00,31.11
             0.00,29.88 0.99,28.89 2.22,28.89
             2.22,28.89 37.78,28.89 37.78,28.89
             39.01,28.89 40.00,29.88 40.00,31.11
             40.00,32.34 39.01,33.33 37.78,33.33
             37.78,33.33 37.78,33.33 37.78,33.33 Z" />
</svg>
